<mxfile host="app.diagrams.net" agent="Mozilla/5.0 (Windows NT 10.0; Win64; x64) AppleWebKit/537.36 (KHTML, like Gecko) Chrome/128.0.0.0 Safari/537.36 OPR/114.0.0.0 (Edition Yx 03)" version="25.0.3">
  <diagram id="C5RBs43oDa-KdzZeNtuy" name="Page-1">
    <mxGraphModel dx="1952" dy="1020" grid="1" gridSize="10" guides="1" tooltips="1" connect="1" arrows="1" fold="1" page="1" pageScale="1" pageWidth="827" pageHeight="1169" math="0" shadow="0">
      <root>
        <mxCell id="WIyWlLk6GJQsqaUBKTNV-0" />
        <mxCell id="WIyWlLk6GJQsqaUBKTNV-1" parent="WIyWlLk6GJQsqaUBKTNV-0" />
        <mxCell id="M_ew5iwTiInoOTw4PbFR-15" style="edgeStyle=orthogonalEdgeStyle;rounded=0;orthogonalLoop=1;jettySize=auto;html=1;exitX=0.5;exitY=1;exitDx=0;exitDy=0;entryX=0.5;entryY=0;entryDx=0;entryDy=0;" edge="1" parent="WIyWlLk6GJQsqaUBKTNV-1" source="M_ew5iwTiInoOTw4PbFR-0" target="M_ew5iwTiInoOTw4PbFR-3">
          <mxGeometry relative="1" as="geometry" />
        </mxCell>
        <mxCell id="M_ew5iwTiInoOTw4PbFR-0" value="&lt;font style=&quot;font-size: 11px;&quot;&gt;Начало&lt;/font&gt;" style="ellipse;whiteSpace=wrap;html=1;" vertex="1" parent="WIyWlLk6GJQsqaUBKTNV-1">
          <mxGeometry x="360" y="10" width="80" height="30" as="geometry" />
        </mxCell>
        <mxCell id="M_ew5iwTiInoOTw4PbFR-16" style="edgeStyle=orthogonalEdgeStyle;rounded=0;orthogonalLoop=1;jettySize=auto;html=1;exitX=0.5;exitY=1;exitDx=0;exitDy=0;entryX=0.5;entryY=0;entryDx=0;entryDy=0;" edge="1" parent="WIyWlLk6GJQsqaUBKTNV-1" source="M_ew5iwTiInoOTw4PbFR-3" target="M_ew5iwTiInoOTw4PbFR-7">
          <mxGeometry relative="1" as="geometry" />
        </mxCell>
        <mxCell id="M_ew5iwTiInoOTw4PbFR-3" value="&lt;div style=&quot;&quot;&gt;&amp;nbsp; &amp;nbsp; &lt;font style=&quot;font-size: 11px;&quot;&gt;List&amp;lt;User&amp;gt; users = new List&amp;lt;User&amp;gt;&lt;/font&gt;&lt;/div&gt;&lt;div style=&quot;&quot;&gt;&lt;font style=&quot;font-size: 11px;&quot;&gt;&amp;nbsp; &amp;nbsp; {&lt;/font&gt;&lt;/div&gt;&lt;div style=&quot;&quot;&gt;&lt;font style=&quot;font-size: 11px;&quot;&gt;&amp;nbsp; &amp;nbsp; &amp;nbsp; &amp;nbsp; &amp;nbsp;new User(&quot;a18nna&quot;, &quot;Alena&quot;, true),&lt;/font&gt;&lt;/div&gt;&lt;div style=&quot;&quot;&gt;&lt;font style=&quot;font-size: 11px;&quot;&gt;&amp;nbsp; &amp;nbsp; &amp;nbsp; &amp;nbsp; &amp;nbsp;new User(&quot;Santa&quot;, &quot;Anatoly&quot;, false),&lt;/font&gt;&lt;/div&gt;&lt;div style=&quot;&quot;&gt;&lt;font style=&quot;font-size: 11px;&quot;&gt;&amp;nbsp; &amp;nbsp; &amp;nbsp; &amp;nbsp; &amp;nbsp;new User(&quot;crasavheg&quot;, &quot;Stepan&quot;, true),&lt;/font&gt;&lt;/div&gt;&lt;div style=&quot;&quot;&gt;&lt;font style=&quot;font-size: 11px;&quot;&gt;&amp;nbsp; &amp;nbsp; &amp;nbsp; &amp;nbsp; &amp;nbsp;new User(&quot;lilyRey&quot;, &quot;Lily&quot;, fal&lt;/font&gt;se)&lt;/div&gt;&lt;div&gt;};&lt;/div&gt;" style="rounded=0;whiteSpace=wrap;html=1;" vertex="1" parent="WIyWlLk6GJQsqaUBKTNV-1">
          <mxGeometry x="280" y="60" width="240" height="100" as="geometry" />
        </mxCell>
        <mxCell id="M_ew5iwTiInoOTw4PbFR-11" value="" style="edgeStyle=orthogonalEdgeStyle;rounded=0;orthogonalLoop=1;jettySize=auto;html=1;" edge="1" parent="WIyWlLk6GJQsqaUBKTNV-1" source="M_ew5iwTiInoOTw4PbFR-7" target="M_ew5iwTiInoOTw4PbFR-8">
          <mxGeometry relative="1" as="geometry" />
        </mxCell>
        <mxCell id="M_ew5iwTiInoOTw4PbFR-50" style="edgeStyle=orthogonalEdgeStyle;rounded=0;orthogonalLoop=1;jettySize=auto;html=1;exitX=1;exitY=0.5;exitDx=0;exitDy=0;" edge="1" parent="WIyWlLk6GJQsqaUBKTNV-1" source="M_ew5iwTiInoOTw4PbFR-7">
          <mxGeometry relative="1" as="geometry">
            <mxPoint x="400" y="940" as="targetPoint" />
            <Array as="points">
              <mxPoint x="940" y="195" />
              <mxPoint x="940" y="940" />
            </Array>
          </mxGeometry>
        </mxCell>
        <mxCell id="M_ew5iwTiInoOTw4PbFR-7" value="true" style="shape=hexagon;perimeter=hexagonPerimeter2;whiteSpace=wrap;html=1;fixedSize=1;" vertex="1" parent="WIyWlLk6GJQsqaUBKTNV-1">
          <mxGeometry x="350" y="180" width="100" height="30" as="geometry" />
        </mxCell>
        <mxCell id="M_ew5iwTiInoOTw4PbFR-17" style="edgeStyle=orthogonalEdgeStyle;rounded=0;orthogonalLoop=1;jettySize=auto;html=1;exitX=0.5;exitY=1;exitDx=0;exitDy=0;entryX=0.5;entryY=0;entryDx=0;entryDy=0;" edge="1" parent="WIyWlLk6GJQsqaUBKTNV-1" source="M_ew5iwTiInoOTw4PbFR-8" target="M_ew5iwTiInoOTw4PbFR-9">
          <mxGeometry relative="1" as="geometry" />
        </mxCell>
        <mxCell id="M_ew5iwTiInoOTw4PbFR-8" value="Вывести &quot;Введите логин&quot;" style="shape=parallelogram;perimeter=parallelogramPerimeter;whiteSpace=wrap;html=1;fixedSize=1;" vertex="1" parent="WIyWlLk6GJQsqaUBKTNV-1">
          <mxGeometry x="305" y="230" width="190" height="30" as="geometry" />
        </mxCell>
        <mxCell id="M_ew5iwTiInoOTw4PbFR-18" style="edgeStyle=orthogonalEdgeStyle;rounded=0;orthogonalLoop=1;jettySize=auto;html=1;exitX=0.5;exitY=1;exitDx=0;exitDy=0;entryX=0.5;entryY=0;entryDx=0;entryDy=0;" edge="1" parent="WIyWlLk6GJQsqaUBKTNV-1" source="M_ew5iwTiInoOTw4PbFR-9" target="M_ew5iwTiInoOTw4PbFR-10">
          <mxGeometry relative="1" as="geometry" />
        </mxCell>
        <mxCell id="M_ew5iwTiInoOTw4PbFR-9" value="Считать log" style="shape=parallelogram;perimeter=parallelogramPerimeter;whiteSpace=wrap;html=1;fixedSize=1;" vertex="1" parent="WIyWlLk6GJQsqaUBKTNV-1">
          <mxGeometry x="300" y="280" width="200" height="30" as="geometry" />
        </mxCell>
        <mxCell id="M_ew5iwTiInoOTw4PbFR-20" style="edgeStyle=orthogonalEdgeStyle;rounded=0;orthogonalLoop=1;jettySize=auto;html=1;exitX=0.5;exitY=1;exitDx=0;exitDy=0;entryX=0.5;entryY=0;entryDx=0;entryDy=0;" edge="1" parent="WIyWlLk6GJQsqaUBKTNV-1" source="M_ew5iwTiInoOTw4PbFR-10" target="M_ew5iwTiInoOTw4PbFR-12">
          <mxGeometry relative="1" as="geometry" />
        </mxCell>
        <mxCell id="M_ew5iwTiInoOTw4PbFR-10" value="User foundUser = users.FirstOrDefault(user =&amp;gt; user.Login == log);" style="rounded=0;whiteSpace=wrap;html=1;" vertex="1" parent="WIyWlLk6GJQsqaUBKTNV-1">
          <mxGeometry x="277.5" y="330" width="245" height="40" as="geometry" />
        </mxCell>
        <mxCell id="M_ew5iwTiInoOTw4PbFR-19" style="edgeStyle=orthogonalEdgeStyle;rounded=0;orthogonalLoop=1;jettySize=auto;html=1;exitX=0;exitY=0.5;exitDx=0;exitDy=0;entryX=0.5;entryY=0;entryDx=0;entryDy=0;" edge="1" parent="WIyWlLk6GJQsqaUBKTNV-1" source="M_ew5iwTiInoOTw4PbFR-12" target="M_ew5iwTiInoOTw4PbFR-14">
          <mxGeometry relative="1" as="geometry" />
        </mxCell>
        <mxCell id="M_ew5iwTiInoOTw4PbFR-22" style="edgeStyle=orthogonalEdgeStyle;rounded=0;orthogonalLoop=1;jettySize=auto;html=1;exitX=1;exitY=0.5;exitDx=0;exitDy=0;entryX=0.5;entryY=0;entryDx=0;entryDy=0;" edge="1" parent="WIyWlLk6GJQsqaUBKTNV-1" source="M_ew5iwTiInoOTw4PbFR-12" target="M_ew5iwTiInoOTw4PbFR-21">
          <mxGeometry relative="1" as="geometry" />
        </mxCell>
        <mxCell id="M_ew5iwTiInoOTw4PbFR-12" value="&lt;font style=&quot;font-size: 11px;&quot;&gt;foundUser != null&lt;/font&gt;" style="rhombus;whiteSpace=wrap;html=1;" vertex="1" parent="WIyWlLk6GJQsqaUBKTNV-1">
          <mxGeometry x="337.5" y="390" width="125" height="70" as="geometry" />
        </mxCell>
        <mxCell id="M_ew5iwTiInoOTw4PbFR-42" style="edgeStyle=orthogonalEdgeStyle;rounded=0;orthogonalLoop=1;jettySize=auto;html=1;exitX=0.5;exitY=1;exitDx=0;exitDy=0;entryX=0.5;entryY=0;entryDx=0;entryDy=0;" edge="1" parent="WIyWlLk6GJQsqaUBKTNV-1" source="M_ew5iwTiInoOTw4PbFR-14" target="M_ew5iwTiInoOTw4PbFR-41">
          <mxGeometry relative="1" as="geometry">
            <Array as="points">
              <mxPoint x="238" y="740" />
              <mxPoint x="400" y="740" />
            </Array>
          </mxGeometry>
        </mxCell>
        <mxCell id="M_ew5iwTiInoOTw4PbFR-14" value="&lt;font style=&quot;font-size: 11px;&quot;&gt;Вывести &quot;пользователь с таким логином не найден&quot;&lt;/font&gt;" style="shape=parallelogram;perimeter=parallelogramPerimeter;whiteSpace=wrap;html=1;fixedSize=1;" vertex="1" parent="WIyWlLk6GJQsqaUBKTNV-1">
          <mxGeometry x="137.5" y="490" width="200" height="30" as="geometry" />
        </mxCell>
        <mxCell id="M_ew5iwTiInoOTw4PbFR-25" style="edgeStyle=orthogonalEdgeStyle;rounded=0;orthogonalLoop=1;jettySize=auto;html=1;exitX=0.5;exitY=1;exitDx=0;exitDy=0;entryX=0.5;entryY=0;entryDx=0;entryDy=0;" edge="1" parent="WIyWlLk6GJQsqaUBKTNV-1" source="M_ew5iwTiInoOTw4PbFR-21" target="M_ew5iwTiInoOTw4PbFR-24">
          <mxGeometry relative="1" as="geometry" />
        </mxCell>
        <mxCell id="M_ew5iwTiInoOTw4PbFR-21" value="&lt;font style=&quot;font-size: 11px;&quot;&gt;foundUser.Greetings();&lt;/font&gt;" style="rounded=0;whiteSpace=wrap;html=1;" vertex="1" parent="WIyWlLk6GJQsqaUBKTNV-1">
          <mxGeometry x="495" y="490" width="140" height="30" as="geometry" />
        </mxCell>
        <mxCell id="M_ew5iwTiInoOTw4PbFR-29" style="edgeStyle=orthogonalEdgeStyle;rounded=0;orthogonalLoop=1;jettySize=auto;html=1;exitX=0;exitY=0.5;exitDx=0;exitDy=0;entryX=0.5;entryY=0;entryDx=0;entryDy=0;" edge="1" parent="WIyWlLk6GJQsqaUBKTNV-1" source="M_ew5iwTiInoOTw4PbFR-24" target="M_ew5iwTiInoOTw4PbFR-28">
          <mxGeometry relative="1" as="geometry" />
        </mxCell>
        <mxCell id="M_ew5iwTiInoOTw4PbFR-30" style="edgeStyle=orthogonalEdgeStyle;rounded=0;orthogonalLoop=1;jettySize=auto;html=1;exitX=1;exitY=0.5;exitDx=0;exitDy=0;" edge="1" parent="WIyWlLk6GJQsqaUBKTNV-1" source="M_ew5iwTiInoOTw4PbFR-24" target="M_ew5iwTiInoOTw4PbFR-27">
          <mxGeometry relative="1" as="geometry" />
        </mxCell>
        <mxCell id="M_ew5iwTiInoOTw4PbFR-24" value="&lt;font style=&quot;font-size: 11px;&quot;&gt;foundUser.IsPremium&lt;/font&gt;" style="rhombus;whiteSpace=wrap;html=1;" vertex="1" parent="WIyWlLk6GJQsqaUBKTNV-1">
          <mxGeometry x="490" y="540" width="150" height="60" as="geometry" />
        </mxCell>
        <mxCell id="M_ew5iwTiInoOTw4PbFR-43" style="edgeStyle=orthogonalEdgeStyle;rounded=0;orthogonalLoop=1;jettySize=auto;html=1;exitX=0.5;exitY=1;exitDx=0;exitDy=0;" edge="1" parent="WIyWlLk6GJQsqaUBKTNV-1" source="M_ew5iwTiInoOTw4PbFR-27">
          <mxGeometry relative="1" as="geometry">
            <mxPoint x="400" y="780" as="targetPoint" />
          </mxGeometry>
        </mxCell>
        <mxCell id="M_ew5iwTiInoOTw4PbFR-27" value="&lt;font style=&quot;font-size: 10px;&quot;&gt;Вывести &quot;Спасибо за подписку, вы премиум пользователь!&quot;&lt;/font&gt;" style="shape=parallelogram;perimeter=parallelogramPerimeter;whiteSpace=wrap;html=1;fixedSize=1;" vertex="1" parent="WIyWlLk6GJQsqaUBKTNV-1">
          <mxGeometry x="640" y="640" width="200" height="30" as="geometry" />
        </mxCell>
        <mxCell id="M_ew5iwTiInoOTw4PbFR-44" style="edgeStyle=orthogonalEdgeStyle;rounded=0;orthogonalLoop=1;jettySize=auto;html=1;exitX=0.5;exitY=1;exitDx=0;exitDy=0;" edge="1" parent="WIyWlLk6GJQsqaUBKTNV-1" source="M_ew5iwTiInoOTw4PbFR-28">
          <mxGeometry relative="1" as="geometry">
            <mxPoint x="400" y="780" as="targetPoint" />
          </mxGeometry>
        </mxCell>
        <mxCell id="M_ew5iwTiInoOTw4PbFR-28" value="&lt;font style=&quot;font-size: 10px;&quot;&gt;ShowAds();&lt;/font&gt;" style="rounded=0;whiteSpace=wrap;html=1;" vertex="1" parent="WIyWlLk6GJQsqaUBKTNV-1">
          <mxGeometry x="292.5" y="640" width="170" height="30" as="geometry" />
        </mxCell>
        <mxCell id="M_ew5iwTiInoOTw4PbFR-32" value="Конец" style="ellipse;whiteSpace=wrap;html=1;" vertex="1" parent="WIyWlLk6GJQsqaUBKTNV-1">
          <mxGeometry x="345" y="980" width="110" height="40" as="geometry" />
        </mxCell>
        <mxCell id="M_ew5iwTiInoOTw4PbFR-46" style="edgeStyle=orthogonalEdgeStyle;rounded=0;orthogonalLoop=1;jettySize=auto;html=1;exitX=0.5;exitY=1;exitDx=0;exitDy=0;entryX=0.5;entryY=0;entryDx=0;entryDy=0;" edge="1" parent="WIyWlLk6GJQsqaUBKTNV-1" source="M_ew5iwTiInoOTw4PbFR-41" target="M_ew5iwTiInoOTw4PbFR-45">
          <mxGeometry relative="1" as="geometry" />
        </mxCell>
        <mxCell id="M_ew5iwTiInoOTw4PbFR-41" value="Вывести &quot;Для выхода нажмите 3&quot;" style="shape=parallelogram;perimeter=parallelogramPerimeter;whiteSpace=wrap;html=1;fixedSize=1;" vertex="1" parent="WIyWlLk6GJQsqaUBKTNV-1">
          <mxGeometry x="280" y="780" width="240" height="40" as="geometry" />
        </mxCell>
        <mxCell id="M_ew5iwTiInoOTw4PbFR-47" style="edgeStyle=orthogonalEdgeStyle;rounded=0;orthogonalLoop=1;jettySize=auto;html=1;exitX=0;exitY=0.5;exitDx=0;exitDy=0;entryX=0;entryY=0.5;entryDx=0;entryDy=0;" edge="1" parent="WIyWlLk6GJQsqaUBKTNV-1" source="M_ew5iwTiInoOTw4PbFR-45" target="M_ew5iwTiInoOTw4PbFR-7">
          <mxGeometry relative="1" as="geometry">
            <Array as="points">
              <mxPoint x="110" y="875" />
              <mxPoint x="110" y="195" />
            </Array>
          </mxGeometry>
        </mxCell>
        <mxCell id="M_ew5iwTiInoOTw4PbFR-49" style="edgeStyle=orthogonalEdgeStyle;rounded=0;orthogonalLoop=1;jettySize=auto;html=1;exitX=0.5;exitY=1;exitDx=0;exitDy=0;" edge="1" parent="WIyWlLk6GJQsqaUBKTNV-1" source="M_ew5iwTiInoOTw4PbFR-45" target="M_ew5iwTiInoOTw4PbFR-32">
          <mxGeometry relative="1" as="geometry" />
        </mxCell>
        <mxCell id="M_ew5iwTiInoOTw4PbFR-45" value="&lt;font style=&quot;font-size: 11px;&quot;&gt;Console.ReadLine() == &quot;3&quot;&lt;/font&gt;" style="rhombus;whiteSpace=wrap;html=1;" vertex="1" parent="WIyWlLk6GJQsqaUBKTNV-1">
          <mxGeometry x="310" y="840" width="180" height="70" as="geometry" />
        </mxCell>
      </root>
    </mxGraphModel>
  </diagram>
</mxfile>
